<?xml version='1.0' encoding='utf-8'?>
<!DOCTYPE svg PUBLIC '-//W3C//DTD SVG 1.1//EN' 'http://www.w3.org/Graphics/SVG/1.1/DTD/svg11.dtd'>
<!-- Uploaded to: SVG Repo, www.svgrepo.com, Generator: SVG Repo Mixer Tools -->
<svg fill="#000000" height="800px" width="800px" version="1.1" xmlns="http://www.w3.org/2000/svg" viewBox="0 0 512 512" xmlns:xlink="http://www.w3.org/1999/xlink" enable-background="new 0 0 512 512">
  <g>
    <g>
      <path d="m402.9,82.3c6.1-16.8 5.4-33.6-3.3-46.5-7.9-11.6-20.8-18-36.5-18-29.9,0-54.6,22.7-55.6,23.6-11.1-18.3-30.3-30.4-52.2-30.4-21.5,0-40.5,11.8-51.7,29.6-0.7-0.6-25.7-22.8-54.7-22.8-15.6,0-28.6,6.4-36.5,18-8.8,12.9-9.4,29.6-3.3,46.5h293.8z"/>
      <path d="M11,479.8c0,11.7,9.1,21.2,20.4,21.2h204.2V337.9H11V479.8z"/>
      <path d="M276.4,337.9V501h204.2c11.3,0,20.4-9.5,20.4-21.2v-142H276.4z"/>
      <path d="m11,144.5v151.1h224.6v-172.5l-204.2,.2c-11.3,0.1-20.4,9.5-20.4,21.2z"/>
      <path d="M276.4,295.7H501V144.6c0-11.7-9.1-21.2-20.4-21.2l-204.2-0.2V295.7z"/>
    </g>
  </g>
</svg>